<svg width="24" height="24" viewBox="0 0 24 24" fill="none" xmlns="http://www.w3.org/2000/svg">
<mask id="mask0_231_879" style="mask-type:alpha" maskUnits="userSpaceOnUse" x="0" y="0" width="24" height="24">
<rect width="24" height="24" fill="white"/>
</mask>
<g mask="url(#mask0_231_879)">
<path d="M13 7C13.5304 7 14.0391 7.21071 14.4142 7.58579C14.7893 7.96086 15 8.46957 15 9V21L10 18L5 21V9C5 8.46957 5.21071 7.96086 5.58579 7.58579C5.96086 7.21071 6.46957 7 7 7H13Z" stroke="#F97316" stroke-width="2" stroke-linecap="round" stroke-linejoin="round"/>
<path d="M9.26562 4C9.44141 3.69553 9.69435 3.44278 9.99895 3.26721C10.3036 3.09165 10.6491 2.99948 11.0006 3H17.0006C17.5311 3 18.0398 3.21072 18.4148 3.58579C18.7899 3.96086 19.0006 4.46957 19.0006 5V17L18.0006 16.4" stroke="#F97316" stroke-width="2" stroke-linecap="round" stroke-linejoin="round"/>
</g>
</svg>
