<svg width="24" height="24" viewBox="0 0 24 24" fill="none" xmlns="http://www.w3.org/2000/svg">
<mask id="mask0_231_1100" style="mask-type:alpha" maskUnits="userSpaceOnUse" x="0" y="0" width="24" height="24">
<rect width="24" height="24" fill="white"/>
</mask>
<g mask="url(#mask0_231_1100)">
<path d="M9 11C11.2091 11 13 9.20914 13 7C13 4.79086 11.2091 3 9 3C6.79086 3 5 4.79086 5 7C5 9.20914 6.79086 11 9 11Z" stroke="#F97316" stroke-width="2" stroke-linecap="round" stroke-linejoin="round"/>
<path d="M3 21V19C3 17.9391 3.42143 16.9217 4.17157 16.1716C4.92172 15.4214 5.93913 15 7 15H11C12.0609 15 13.0783 15.4214 13.8284 16.1716C14.5786 16.9217 15 17.9391 15 19V21" stroke="#F97316" stroke-width="2" stroke-linecap="round" stroke-linejoin="round"/>
<path d="M16 11H22M19 8V14" stroke="#F97316" stroke-width="2" stroke-linecap="round" stroke-linejoin="round"/>
</g>
</svg>
