<svg width="18" height="18" viewBox="0 0 18 18" fill="none" xmlns="http://www.w3.org/2000/svg">
<mask id="mask0_216_1075" style="mask-type:alpha" maskUnits="userSpaceOnUse" x="0" y="0" width="18" height="18">
<rect width="18" height="18" fill="white"/>
</mask>
<g mask="url(#mask0_216_1075)">
<path d="M7.37066 6.879C6.95114 6.45935 6.4166 6.17354 5.83463 6.05771C5.25266 5.94188 4.64941 6.00124 4.10118 6.22828C3.55295 6.45531 3.08436 6.83983 2.75468 7.3332C2.42499 7.82656 2.24902 8.40662 2.24902 9C2.24902 9.59338 2.42499 10.1734 2.75468 10.6668C3.08436 11.1602 3.55295 11.5447 4.10118 11.7717C4.64941 11.9988 5.25266 12.0581 5.83463 11.9423C6.4166 11.8265 6.95114 11.5406 7.37066 11.121C8.03635 10.5173 8.58812 9.79889 8.99966 9C9.41121 8.20112 9.96298 7.4827 10.6287 6.879C11.0482 6.45935 11.5827 6.17354 12.1647 6.05771C12.7467 5.94188 13.3499 6.00124 13.8981 6.22828C14.4464 6.45531 14.915 6.83983 15.2447 7.3332C15.5743 7.82656 15.7503 8.40662 15.7503 9C15.7503 9.59338 15.5743 10.1734 15.2447 10.6668C14.915 11.1602 14.4464 11.5447 13.8981 11.7717C13.3499 11.9988 12.7467 12.0581 12.1647 11.9423C11.5827 11.8265 11.0482 11.5406 10.6287 11.121C9.96298 10.5173 9.41121 9.79889 8.99966 9C8.58812 8.20112 8.03635 7.4827 7.37066 6.879" stroke="white" stroke-width="2" stroke-linecap="round" stroke-linejoin="round"/>
</g>
</svg>
