<svg width="18" height="18" viewBox="0 0 18 18" fill="none" xmlns="http://www.w3.org/2000/svg">
<mask id="mask0_216_1073" style="mask-type:alpha" maskUnits="userSpaceOnUse" x="0" y="0" width="18" height="18">
<rect width="18" height="18" fill="white"/>
</mask>
<g mask="url(#mask0_216_1073)">
<path d="M11.25 7.5L14.6647 5.793C14.7791 5.73587 14.9061 5.70891 15.0337 5.71466C15.1614 5.72041 15.2855 5.75868 15.3942 5.82585C15.5029 5.89302 15.5927 5.98685 15.6549 6.09845C15.7172 6.21005 15.7499 6.3357 15.75 6.4635V11.5365C15.7499 11.6643 15.7172 11.7899 15.6549 11.9015C15.5927 12.0131 15.5029 12.107 15.3942 12.1741C15.2855 12.2413 15.1614 12.2796 15.0337 12.2853C14.9061 12.2911 14.7791 12.2641 14.6647 12.207L11.25 10.5V7.5Z" stroke="white" stroke-width="2" stroke-linecap="round" stroke-linejoin="round"/>
<path d="M9.75 4.5H3.75C2.92157 4.5 2.25 5.17157 2.25 6V12C2.25 12.8284 2.92157 13.5 3.75 13.5H9.75C10.5784 13.5 11.25 12.8284 11.25 12V6C11.25 5.17157 10.5784 4.5 9.75 4.5Z" stroke="white" stroke-width="2" stroke-linecap="round" stroke-linejoin="round"/>
</g>
</svg>
