<svg width="18" height="18" viewBox="0 0 18 18" fill="none" xmlns="http://www.w3.org/2000/svg">
<mask id="mask0_216_1078" style="mask-type:alpha" maskUnits="userSpaceOnUse" x="0" y="0" width="18" height="18">
<rect width="18" height="18" fill="white"/>
</mask>
<g mask="url(#mask0_216_1078)">
<path d="M15 6H10.5C10.0858 6 9.75 6.33579 9.75 6.75V14.25C9.75 14.6642 10.0858 15 10.5 15H15C15.4142 15 15.75 14.6642 15.75 14.25V6.75C15.75 6.33579 15.4142 6 15 6Z" stroke="white" stroke-width="2" stroke-linecap="round" stroke-linejoin="round"/>
<path d="M13.5 6V3.75C13.5 3.55109 13.421 3.36032 13.2803 3.21967C13.1397 3.07902 12.9489 3 12.75 3H3C2.80109 3 2.61032 3.07902 2.46967 3.21967C2.32902 3.36032 2.25 3.55109 2.25 3.75V12.75C2.25 12.9489 2.32902 13.1397 2.46967 13.2803C2.61032 13.421 2.80109 13.5 3 13.5H9.75" stroke="white" stroke-width="2" stroke-linecap="round" stroke-linejoin="round"/>
<path d="M12 6.75H13.5" stroke="white" stroke-width="2" stroke-linecap="round" stroke-linejoin="round"/>
</g>
</svg>
