<svg width="18" height="18" viewBox="0 0 18 18" fill="none" xmlns="http://www.w3.org/2000/svg">
<mask id="mask0_218_1476" style="mask-type:alpha" maskUnits="userSpaceOnUse" x="0" y="0" width="18" height="18">
<rect width="18" height="18" fill="white"/>
</mask>
<g mask="url(#mask0_218_1476)">
<path d="M5.25 9.75001V3.75001C5.25 3.5511 5.17098 3.36033 5.03033 3.21968C4.88968 3.07903 4.69891 3.00001 4.5 3.00001H3C2.80109 3.00001 2.61032 3.07903 2.46967 3.21968C2.32902 3.36033 2.25 3.5511 2.25 3.75001V9.00001C2.25 9.19892 2.32902 9.38969 2.46967 9.53034C2.61032 9.67099 2.80109 9.75001 3 9.75001H5.25ZM5.25 9.75001C6.04565 9.75001 6.80871 10.0661 7.37132 10.6287C7.93393 11.1913 8.25 11.9544 8.25 12.75V13.5C8.25 13.8978 8.40804 14.2794 8.68934 14.5607C8.97064 14.842 9.35218 15 9.75 15C10.1478 15 10.5294 14.842 10.8107 14.5607C11.092 14.2794 11.25 13.8978 11.25 13.5V9.75001H13.5C13.8978 9.75001 14.2794 9.59197 14.5607 9.31067C14.842 9.02937 15 8.64784 15 8.25001L14.25 4.50001C14.1421 4.0399 13.9375 3.64483 13.667 3.37429C13.3964 3.10375 13.0746 2.97239 12.75 3.00001H7.5C6.90326 3.00001 6.33097 3.23706 5.90901 3.65902C5.48705 4.08098 5.25 4.65327 5.25 5.25001" stroke="#ED0006" stroke-width="2" stroke-linecap="round" stroke-linejoin="round"/>
</g>
</svg>
