<svg width="18" height="18" viewBox="0 0 18 18" fill="none" xmlns="http://www.w3.org/2000/svg">
<mask id="mask0_218_1481" style="mask-type:alpha" maskUnits="userSpaceOnUse" x="0" y="0" width="18" height="18">
<rect width="18" height="18" fill="white"/>
</mask>
<g mask="url(#mask0_218_1481)">
<path d="M5.25 8.25V14.25C5.25 14.4489 5.17098 14.6397 5.03033 14.7803C4.88968 14.921 4.69891 15 4.5 15H3C2.80109 15 2.61032 14.921 2.46967 14.7803C2.32902 14.6397 2.25 14.4489 2.25 14.25V9C2.25 8.80109 2.32902 8.61032 2.46967 8.46967C2.61032 8.32902 2.80109 8.25 3 8.25H5.25ZM5.25 8.25C6.04565 8.25 6.80871 7.93393 7.37132 7.37132C7.93393 6.80871 8.25 6.04565 8.25 5.25V4.5C8.25 4.10218 8.40804 3.72064 8.68934 3.43934C8.97064 3.15804 9.35218 3 9.75 3C10.1478 3 10.5294 3.15804 10.8107 3.43934C11.092 3.72064 11.25 4.10218 11.25 4.5V8.25H13.5C13.8978 8.25 14.2794 8.40804 14.5607 8.68934C14.842 8.97064 15 9.35218 15 9.75L14.25 13.5C14.1421 13.9601 13.9375 14.3552 13.667 14.6257C13.3964 14.8963 13.0746 15.0276 12.75 15H7.5C6.90326 15 6.33097 14.7629 5.90901 14.341C5.48705 13.919 5.25 13.3467 5.25 12.75" stroke="#4ADE80" stroke-width="2" stroke-linecap="round" stroke-linejoin="round"/>
</g>
</svg>
