<svg width="10" height="10" viewBox="0 0 10 10" fill="none" xmlns="http://www.w3.org/2000/svg">
<mask id="mask0_202_4756" style="mask-type:alpha" maskUnits="userSpaceOnUse" x="0" y="0" width="10" height="10">
<rect width="10" height="10" fill="white"/>
</mask>
<g mask="url(#mask0_202_4756)">
<path d="M4.70078 1.43884C4.79681 1.24428 4.84483 1.147 4.91002 1.11592C4.96674 1.08888 5.03263 1.08888 5.08934 1.11592C5.15453 1.147 5.20255 1.24428 5.29858 1.43884L6.2097 3.28466C6.23805 3.3421 6.25223 3.37082 6.27294 3.39312C6.29129 3.41286 6.31329 3.42885 6.33772 3.44022C6.36532 3.45305 6.39701 3.45768 6.46039 3.46695L8.49842 3.76484C8.71303 3.79621 8.82034 3.81189 8.87 3.86431C8.91321 3.90991 8.93353 3.97258 8.9253 4.03487C8.91585 4.10645 8.83816 4.18212 8.68279 4.33345L7.20861 5.7693C7.16266 5.81406 7.13968 5.83644 7.12485 5.86307C7.11173 5.88664 7.1033 5.91255 7.10006 5.93934C7.09639 5.96959 7.10181 6.00121 7.11265 6.06443L7.46049 8.09251C7.49718 8.30641 7.51552 8.41337 7.48105 8.47683C7.45105 8.53205 7.39774 8.57079 7.33595 8.58224C7.26493 8.5954 7.16889 8.5449 6.9768 8.44388L5.15483 7.48572C5.09806 7.45587 5.06968 7.44094 5.03978 7.43508C5.0133 7.42988 4.98607 7.42988 4.95959 7.43508C4.92968 7.44094 4.9013 7.45587 4.84453 7.48572L3.02256 8.44388C2.83047 8.5449 2.73443 8.5954 2.66341 8.58224C2.60163 8.57079 2.54831 8.53205 2.51832 8.47683C2.48384 8.41337 2.50218 8.30641 2.53887 8.09251L2.88671 6.06443C2.89755 6.00121 2.90298 5.96959 2.89931 5.93934C2.89606 5.91255 2.88764 5.88664 2.87451 5.86307C2.85968 5.83644 2.83671 5.81406 2.79075 5.7693L1.31657 4.33345C1.1612 4.18212 1.08351 4.10645 1.07406 4.03487C1.06584 3.97258 1.08616 3.90991 1.12936 3.86431C1.17902 3.81189 1.28633 3.79621 1.50094 3.76484L3.53897 3.46695C3.60235 3.45768 3.63404 3.45305 3.66164 3.44022C3.68608 3.42885 3.70808 3.41286 3.72642 3.39312C3.74714 3.37082 3.76131 3.3421 3.78966 3.28466L4.70078 1.43884Z" fill="#F97316"/>
</g>
</svg>
