<svg width="18" height="18" viewBox="0 0 18 18" fill="none" xmlns="http://www.w3.org/2000/svg">
<mask id="mask0_202_4030" style="mask-type:alpha" maskUnits="userSpaceOnUse" x="0" y="0" width="18" height="18">
<rect width="18" height="18" fill="white"/>
</mask>
<g mask="url(#mask0_202_4030)">
<path d="M8.46199 2.58993C8.63485 2.23972 8.72128 2.06462 8.83862 2.00867C8.94071 1.96 9.05932 1.96 9.1614 2.00867C9.27874 2.06462 9.36517 2.23972 9.53804 2.58993L11.178 5.9124C11.2291 6.01579 11.2546 6.06748 11.2919 6.10762C11.3249 6.14316 11.3645 6.17195 11.4085 6.1924C11.4582 6.21551 11.5152 6.22384 11.6293 6.24052L15.2977 6.77672C15.684 6.83318 15.8772 6.86141 15.9666 6.95577C16.0444 7.03786 16.0809 7.15066 16.0661 7.26277C16.0491 7.39162 15.9093 7.52782 15.6296 7.80022L12.9761 10.3848C12.8934 10.4653 12.852 10.5056 12.8253 10.5535C12.8017 10.596 12.7865 10.6426 12.7807 10.6908C12.7741 10.7453 12.7838 10.8022 12.8034 10.916L13.4295 14.5665C13.4955 14.9516 13.5285 15.1441 13.4665 15.2583C13.4125 15.3577 13.3165 15.4274 13.2053 15.448C13.0775 15.4717 12.9046 15.3808 12.5588 15.199L9.27928 13.4743C9.1771 13.4206 9.12601 13.3937 9.07218 13.3832C9.02452 13.3738 8.9755 13.3738 8.92784 13.3832C8.87402 13.3937 8.82293 13.4206 8.72074 13.4743L5.44119 15.199C5.09544 15.3808 4.92256 15.4717 4.79473 15.448C4.68351 15.4274 4.58754 15.3577 4.53355 15.2583C4.4715 15.1441 4.50452 14.9516 4.57056 14.5665L5.19666 10.916C5.21618 10.8022 5.22594 10.7453 5.21934 10.6908C5.21349 10.6426 5.19833 10.596 5.1747 10.5535C5.14802 10.5056 5.10666 10.4653 5.02394 10.3848L2.37042 7.80022C2.09075 7.52782 1.95091 7.39162 1.93389 7.26277C1.91909 7.15066 1.95567 7.03786 2.03344 6.95577C2.12283 6.86141 2.31598 6.83318 2.70228 6.77672L6.37073 6.24052C6.48482 6.22384 6.54186 6.21551 6.59154 6.1924C6.63552 6.17195 6.67512 6.14316 6.70814 6.10762C6.74543 6.06748 6.77095 6.01579 6.82198 5.9124L8.46199 2.58993Z" fill="#F97316"/>
</g>
</svg>
