<svg width="18" height="18" viewBox="0 0 18 18" fill="none" xmlns="http://www.w3.org/2000/svg">
<mask id="mask0_216_1060" style="mask-type:alpha" maskUnits="userSpaceOnUse" x="0" y="0" width="18" height="18">
<rect width="18" height="18" fill="white"/>
</mask>
<g mask="url(#mask0_216_1060)">
<path d="M6.75 8.25C8.40685 8.25 9.75 6.90685 9.75 5.25C9.75 3.59315 8.40685 2.25 6.75 2.25C5.09315 2.25 3.75 3.59315 3.75 5.25C3.75 6.90685 5.09315 8.25 6.75 8.25Z" stroke="white" stroke-width="2" stroke-linecap="round" stroke-linejoin="round"/>
<path d="M2.25 15.75V14.25C2.25 13.4544 2.56607 12.6913 3.12868 12.1287C3.69129 11.5661 4.45435 11.25 5.25 11.25H8.25C9.04565 11.25 9.80871 11.5661 10.3713 12.1287C10.9339 12.6913 11.25 13.4544 11.25 14.25V15.75" stroke="white" stroke-width="2" stroke-linecap="round" stroke-linejoin="round"/>
<path d="M12 2.3475C12.6453 2.51273 13.2173 2.88803 13.6257 3.41423C14.0342 3.94044 14.2559 4.58762 14.2559 5.25375C14.2559 5.91988 14.0342 6.56706 13.6257 7.09327C13.2173 7.61947 12.6453 7.99477 12 8.16" stroke="white" stroke-width="2" stroke-linecap="round" stroke-linejoin="round"/>
<path d="M15.75 15.75V14.25C15.7462 13.5879 15.5234 12.9456 15.1165 12.4233C14.7095 11.901 14.1411 11.528 13.5 11.3625" stroke="white" stroke-width="2" stroke-linecap="round" stroke-linejoin="round"/>
</g>
</svg>
