<svg width="51" height="22" viewBox="0 0 51 22" fill="none" xmlns="http://www.w3.org/2000/svg">
<path fill-rule="evenodd" clip-rule="evenodd" d="M9.45407 3.03395C8.86652 3.75241 7.92644 4.31908 6.98636 4.23813C6.86885 3.26669 7.3291 2.23454 7.86769 1.59704C8.45524 0.858342 9.48345 0.332148 10.3158 0.291672C10.4137 1.30358 10.0318 2.29526 9.45407 3.03395ZM10.3059 4.43038C9.47775 4.38113 8.72206 4.68776 8.11167 4.93544C7.71887 5.09482 7.38623 5.22979 7.13317 5.22979C6.84919 5.22979 6.50282 5.08761 6.11393 4.92796C5.60436 4.71878 5.02178 4.47962 4.41085 4.4911C3.01052 4.51134 1.70812 5.33099 0.993263 6.63635C-0.475615 9.24708 0.611355 13.1126 2.03127 15.2376C2.72654 16.29 3.5589 17.4436 4.65567 17.4031C5.13817 17.3843 5.48526 17.2321 5.84447 17.0746C6.25801 16.8932 6.68761 16.7049 7.3584 16.7049C8.00594 16.7049 8.41675 16.8883 8.8111 17.0644C9.18607 17.2319 9.54616 17.3927 10.0807 17.3828C11.2167 17.3626 11.9315 16.3305 12.6268 15.2781C13.3771 14.1486 13.7068 13.0462 13.7568 12.879L13.7627 12.8596C13.7615 12.8584 13.7523 12.854 13.7359 12.8463L13.7359 12.8462C13.4851 12.7276 11.568 11.8207 11.5496 9.38875C11.5311 7.3475 13.0702 6.31327 13.3124 6.15047C13.3272 6.14056 13.3371 6.13388 13.3416 6.13039C12.3624 4.63277 10.8347 4.47086 10.3059 4.43038ZM18.1694 17.2715V1.49583H23.8981C26.8554 1.49583 28.9216 3.60061 28.9216 6.67682C28.9216 9.75303 26.8162 11.878 23.8197 11.878H20.5392V17.2715H18.1694ZM20.539 3.56013H23.2711C25.3276 3.56013 26.5027 4.69348 26.5027 6.68694C26.5027 8.68041 25.3276 9.82387 23.2613 9.82387H20.539V3.56013ZM36.7459 15.3793C36.1192 16.6138 34.7385 17.393 33.25 17.393C31.0467 17.393 29.5093 16.037 29.5093 13.9929C29.5093 11.9691 30.9977 10.8054 33.7494 10.6334L36.7068 10.4513V9.58101C36.7068 8.29588 35.894 7.59766 34.4447 7.59766C33.25 7.59766 32.3785 8.23517 32.2022 9.2066H30.0674C30.136 7.16254 31.9966 5.67503 34.5133 5.67503C37.2258 5.67503 38.9884 7.1423 38.9884 9.4191V17.2715H36.7949V15.3793H36.7459ZM33.8864 15.5209C32.6231 15.5209 31.8201 14.8936 31.8201 13.9322C31.8201 12.9406 32.5938 12.3638 34.0724 12.2727L36.7066 12.1007V12.9912C36.7066 14.4685 35.4923 15.5209 33.8864 15.5209ZM46.2642 17.8888C45.3143 20.6513 44.2273 21.562 41.9163 21.562C41.74 21.562 41.1525 21.5418 41.0154 21.5013V19.6091C41.1623 19.6293 41.5246 19.6495 41.7107 19.6495C42.7585 19.6495 43.346 19.1942 43.7083 18.0102L43.9238 17.312L39.9088 5.82683H42.3863L45.1772 15.1465H45.2262L48.017 5.82683H50.426L46.2642 17.8888Z" fill="black"/>
</svg>
