<svg width="47" height="28" viewBox="0 0 47 28" fill="none" xmlns="http://www.w3.org/2000/svg">
<path fill-rule="evenodd" clip-rule="evenodd" d="M23.0155 24.0906C20.5778 26.1282 17.4156 27.3583 13.9602 27.3583C6.25021 27.3583 0 21.234 0 13.6792C0 6.12437 6.25021 0 13.9602 0C17.4156 0 20.5778 1.2301 23.0155 3.26777C25.4533 1.2301 28.6155 0 32.0708 0C39.7809 0 46.0311 6.12437 46.0311 13.6792C46.0311 21.234 39.7809 27.3583 32.0708 27.3583C28.6155 27.3583 25.4533 26.1282 23.0155 24.0906Z" fill="#ED0006"/>
<path fill-rule="evenodd" clip-rule="evenodd" d="M23.0156 24.0906C26.0173 21.5816 27.9206 17.8482 27.9206 13.6792C27.9206 9.51017 26.0173 5.77677 23.0156 3.26776C25.4534 1.23009 28.6155 0 32.0709 0C39.7809 0 46.0311 6.12437 46.0311 13.6792C46.0311 21.234 39.7809 27.3583 32.0709 27.3583C28.6155 27.3583 25.4534 26.1282 23.0156 24.0906Z" fill="#F9A000"/>
<path fill-rule="evenodd" clip-rule="evenodd" d="M23.0152 24.0905C26.0168 21.5815 27.9201 17.8481 27.9201 13.6792C27.9201 9.51019 26.0168 5.77681 23.0152 3.2678C20.0136 5.77681 18.1104 9.51019 18.1104 13.6792C18.1104 17.8481 20.0136 21.5815 23.0152 24.0905Z" fill="#FF5E00"/>
</svg>
