<svg width="23" height="28" viewBox="0 0 23 28" fill="none" xmlns="http://www.w3.org/2000/svg">
<path fill-rule="evenodd" clip-rule="evenodd" d="M7.08815 26.6652L7.54259 23.7066L6.53027 23.6824H1.69629L5.05574 1.84959C5.0662 1.78348 5.10004 1.72211 5.14945 1.67845C5.1991 1.63479 5.26239 1.61084 5.32859 1.61084H13.4794C16.1856 1.61084 18.053 2.18789 19.0278 3.32702C19.4849 3.86141 19.776 4.41999 19.917 5.03447C20.0647 5.67937 20.0671 6.44977 19.923 7.38956L19.9126 7.45792V8.06017L20.3697 8.32562C20.7545 8.53493 21.0605 8.77443 21.2951 9.04861C21.686 9.50566 21.9389 10.0865 22.0458 10.7748C22.1563 11.4828 22.1198 12.3255 21.9389 13.2796C21.7303 14.3768 21.3932 15.3325 20.9378 16.1144C20.5191 16.8349 19.9856 17.4327 19.352 17.8957C18.7472 18.3358 18.0286 18.6698 17.2162 18.8836C16.4287 19.0937 15.5311 19.1997 14.5465 19.1997H13.9122C13.4587 19.1997 13.0182 19.3671 12.6723 19.6673C12.3255 19.9736 12.0962 20.3923 12.0258 20.8501L11.9779 21.1165L11.1749 26.3314L11.1386 26.5227C11.1289 26.5834 11.1123 26.6136 11.088 26.634C11.0663 26.6527 11.0352 26.6652 11.0048 26.6652H7.08815Z" fill="#28356A"/>
<path fill-rule="evenodd" clip-rule="evenodd" d="M20.8028 7.52747C20.7787 7.68688 20.7507 7.84979 20.7195 8.0172C19.6446 13.6739 15.9671 15.6281 11.2704 15.6281H8.87892C8.30449 15.6281 7.82036 16.0555 7.73103 16.6363L6.15986 26.8512C6.10169 27.2327 6.38842 27.5762 6.76375 27.5762H11.0053C11.5074 27.5762 11.9341 27.2023 12.0132 26.6946L12.0548 26.4738L12.8535 21.2793L12.9048 20.9944C12.9829 20.485 13.4106 20.1108 13.9127 20.1108H14.5471C18.6564 20.1108 21.8735 18.4008 22.8138 13.4521C23.2064 11.3849 23.0031 9.65878 21.9638 8.44481C21.6493 8.07882 21.2591 7.77495 20.8028 7.52747Z" fill="#298FC2"/>
<path fill-rule="evenodd" clip-rule="evenodd" d="M19.6779 7.06799C19.5136 7.01884 19.3442 6.97443 19.1704 6.93427C18.9957 6.8951 18.8168 6.86042 18.6325 6.82998C17.9877 6.72321 17.2811 6.67256 16.5244 6.67256H10.1358C9.9783 6.67256 9.82885 6.70899 9.69522 6.77485C9.40046 6.92005 9.18164 7.20595 9.12858 7.55597L7.76941 16.3791L7.73047 16.6363C7.8198 16.0555 8.30393 15.6282 8.87836 15.6282H11.2698C15.9665 15.6282 19.6441 13.673 20.719 8.01726C20.7511 7.84986 20.7781 7.68695 20.8022 7.52753C20.5303 7.37959 20.2358 7.2531 19.9186 7.14533C19.8403 7.11863 19.7595 7.09294 19.6779 7.06799Z" fill="#22284F"/>
<path fill-rule="evenodd" clip-rule="evenodd" d="M9.12867 7.556C9.18173 7.20598 9.40055 6.92008 9.69531 6.77588C9.82991 6.70977 9.97839 6.67334 10.1359 6.67334H16.5245C17.2812 6.67334 17.9878 6.72424 18.6326 6.83101C18.8168 6.8612 18.9957 6.89613 19.1705 6.9353C19.3443 6.97521 19.5137 7.01987 19.678 7.06877C19.7595 7.09372 19.8404 7.11966 19.9195 7.14536C20.2366 7.25313 20.5314 7.38062 20.8033 7.52756C21.1231 5.43716 20.8006 4.01388 19.698 2.72506C18.4822 1.30601 16.2881 0.698776 13.4805 0.698776H5.32939C4.75593 0.698776 4.26669 1.12614 4.17809 1.70793L0.783103 23.7653C0.716167 24.2016 1.04452 24.5953 1.47388 24.5953H6.506L9.12867 7.556Z" fill="#28356A"/>
</svg>
