<svg width="50" height="17" viewBox="0 0 50 17" fill="none" xmlns="http://www.w3.org/2000/svg">
<path fill-rule="evenodd" clip-rule="evenodd" d="M13.1333 16.3773H8.89269L5.71272 3.99276C5.56179 3.42308 5.24131 2.91944 4.7699 2.68207C3.59343 2.08555 2.29705 1.61081 0.882812 1.37138V0.894577H7.71416C8.65698 0.894577 9.3641 1.61081 9.48195 2.44264L11.1319 11.376L15.3705 0.894577H19.4933L13.1333 16.3773ZM21.8503 16.3773H17.8454L21.1432 0.894577H25.1482L21.8503 16.3773ZM30.3296 5.18376C30.4474 4.34987 31.1545 3.87306 31.9795 3.87306C33.2759 3.75335 34.688 3.99278 35.8666 4.58724L36.5737 1.25374C35.3952 0.77694 34.0988 0.537506 32.9223 0.537506C29.0352 0.537506 26.2068 2.68209 26.2068 5.65849C26.2068 7.92279 28.2103 9.1117 29.6245 9.82794C31.1545 10.5421 31.7438 11.0189 31.6259 11.7331C31.6259 12.8043 30.4474 13.2812 29.2709 13.2812C27.8567 13.2812 26.4425 12.9241 25.1482 12.3275L24.441 15.6631C25.8553 16.2576 27.3853 16.497 28.7995 16.497C33.158 16.6146 35.8666 14.4721 35.8666 11.2563C35.8666 7.20656 30.3296 6.96919 30.3296 5.18376ZM49.8828 16.3773L46.7028 0.894577H43.2872C42.5801 0.894577 41.8729 1.37138 41.6372 2.08555L35.7487 16.3773H39.8715L40.6944 14.115H45.76L46.2314 16.3773H49.8828ZM43.8764 5.06404L45.0529 10.8992H41.7551L43.8764 5.06404Z" fill="#172B85"/>
</svg>
