<svg width="16" height="16" viewBox="0 0 16 16" fill="none" xmlns="http://www.w3.org/2000/svg">
<mask id="mask0_202_2269" style="mask-type:alpha" maskUnits="userSpaceOnUse" x="0" y="0" width="16" height="16">
<rect width="16" height="16" fill="white"/>
</mask>
<g mask="url(#mask0_202_2269)">
<path d="M7.52144 2.30215C7.6751 1.99086 7.75193 1.83522 7.85623 1.78549C7.94697 1.74222 8.0524 1.74222 8.14314 1.78549C8.24744 1.83522 8.32427 1.99086 8.47793 2.30215L9.93571 5.25547C9.98108 5.34737 10.0038 5.39332 10.0369 5.42899C10.0663 5.46058 10.1015 5.48618 10.1406 5.50436C10.1847 5.52489 10.2354 5.5323 10.3368 5.54713L13.5977 6.02375C13.9411 6.07394 14.1127 6.09903 14.1922 6.1829C14.2613 6.25587 14.2938 6.35614 14.2807 6.45579C14.2656 6.57033 14.1413 6.6914 13.8927 6.93353L11.534 9.23089C11.4604 9.30251 11.4237 9.33831 11.4 9.38092C11.379 9.41864 11.3655 9.46009 11.3603 9.50295C11.3544 9.55136 11.3631 9.60194 11.3804 9.7031L11.937 12.948C11.9957 13.2903 12.025 13.4614 11.9699 13.5629C11.9219 13.6513 11.8366 13.7133 11.7377 13.7316C11.6241 13.7527 11.4704 13.6718 11.1631 13.5102L8.24793 11.9772C8.1571 11.9294 8.11168 11.9055 8.06384 11.8961C8.02147 11.8878 7.9779 11.8878 7.93554 11.8961C7.88769 11.9055 7.84228 11.9294 7.75145 11.9772L4.83629 13.5102C4.52895 13.6718 4.37528 13.7527 4.26166 13.7316C4.1628 13.7133 4.07749 13.6513 4.0295 13.5629C3.97434 13.4614 4.00369 13.2903 4.06239 12.948L4.61893 9.7031C4.63628 9.60194 4.64496 9.55136 4.63909 9.50295C4.63389 9.46009 4.62042 9.41864 4.59941 9.38092C4.57569 9.33831 4.53893 9.30251 4.4654 9.23089L2.10671 6.93353C1.85812 6.6914 1.73382 6.57033 1.71869 6.45579C1.70553 6.35614 1.73804 6.25587 1.80717 6.1829C1.88663 6.09903 2.05832 6.07394 2.4017 6.02375L5.66255 5.54713C5.76396 5.5323 5.81466 5.52489 5.85882 5.50436C5.89792 5.48618 5.93312 5.46058 5.96246 5.42899C5.99561 5.39332 6.01829 5.34737 6.06366 5.25547L7.52144 2.30215Z" fill="#F97316"/>
</g>
</svg>
