<svg width="40" height="40" viewBox="0 0 40 40" fill="none" xmlns="http://www.w3.org/2000/svg">
<mask id="mask0_231_1226" style="mask-type:alpha" maskUnits="userSpaceOnUse" x="0" y="0" width="40" height="40">
<rect width="40" height="40" fill="white"/>
</mask>
<g mask="url(#mask0_231_1226)">
<path d="M36.6673 6.68334C35.0007 7.50001 33.3673 7.83167 31.6673 8.33334C29.799 6.22501 27.029 6.10834 24.3673 7.10501C21.7057 8.10167 19.9623 10.5383 20.0007 13.3333V15C14.5923 15.1383 9.77565 12.675 6.66732 8.33334C6.66732 8.33334 -0.302682 20.7217 13.334 26.6667C10.214 28.745 7.10232 30.1467 3.33398 30C8.84732 33.005 14.8557 34.0383 20.0573 32.5283C26.024 30.795 30.9273 26.3233 32.809 19.625C33.3703 17.5878 33.649 15.4831 33.6373 13.37C33.634 12.955 36.154 8.75001 36.6673 6.68167V6.68334Z" stroke="#1DA1F2" stroke-width="2" stroke-linecap="round" stroke-linejoin="round"/>
</g>
</svg>
