<svg width="24" height="24" viewBox="0 0 24 24" fill="none" xmlns="http://www.w3.org/2000/svg">
<mask id="mask0_202_2005" style="mask-type:alpha" maskUnits="userSpaceOnUse" x="0" y="0" width="24" height="24">
<rect width="24" height="24" fill="white"/>
</mask>
<g mask="url(#mask0_202_2005)">
<path d="M13 7C13.5304 7 14.0391 7.21071 14.4142 7.58579C14.7893 7.96086 15 8.46957 15 9V21L10 18L5 21V9C5 8.46957 5.21071 7.96086 5.58579 7.58579C5.96086 7.21071 6.46957 7 7 7H13Z" stroke="black" stroke-width="2" stroke-linecap="round" stroke-linejoin="round"/>
<path d="M9.26514 4C9.44092 3.69553 9.69386 3.44278 9.99846 3.26721C10.3031 3.09165 10.6486 2.99948 11.0001 3H17.0001C17.5306 3 18.0393 3.21072 18.4143 3.58579C18.7894 3.96086 19.0001 4.46957 19.0001 5V17L18.0001 16.4" stroke="black" stroke-width="2" stroke-linecap="round" stroke-linejoin="round"/>
</g>
</svg>
